<svg width="26" height="26" viewBox="0 0 26 26" fill="none" xmlns="http://www.w3.org/2000/svg">

<ellipse cx="11.5" cy="16.5" rx="6.5" ry="7.5" fill="white"></ellipse><path d="M15.5916 0.745118C17.8891 0.744022 20.1174 1.53061 21.9051 2.97369C23.6927 4.41677 24.9316 6.42912 25.4151 8.6751C25.8986 10.9211 25.5974 13.2649 24.5619 15.3157C23.5263 17.3666 21.819 19.0003 19.7246 19.9446C19.0551 21.4247 18.0366 22.7203 16.7565 23.7203C15.4764 24.7203 13.9728 25.3949 12.3747 25.6862C10.7766 25.9775 9.13175 25.8769 7.58111 25.3929C6.03047 24.9089 4.62036 24.056 3.47172 22.9074C2.32308 21.7587 1.47019 20.3486 0.986195 18.798C0.502198 17.2473 0.40154 15.6024 0.692853 14.0043C0.984166 12.4063 1.65876 10.9027 2.65877 9.62255C3.65878 8.34242 4.95437 7.32396 6.43443 6.6545C7.23056 4.89297 8.51795 3.3985 10.1422 2.35034C11.7664 1.30218 13.6586 0.74482 15.5916 0.745118ZM11.8253 9.53324H9.31442V10.7887C8.49852 10.7867 7.71392 11.1025 7.12691 11.6692C6.53991 12.2358 6.19664 13.0088 6.16986 13.8243C6.14309 14.6398 6.43491 15.4336 6.98349 16.0375C7.53206 16.6415 8.29426 17.0081 9.10853 17.0596L9.31442 17.0659H11.8253L11.9383 17.076C12.083 17.1022 12.214 17.1784 12.3082 17.2912C12.4025 17.4041 12.4542 17.5465 12.4542 17.6936C12.4542 17.8407 12.4025 17.9831 12.3082 18.096C12.214 18.2089 12.083 18.2851 11.9383 18.3113L11.8253 18.3214H6.80353V20.8322H9.31442V22.0877H11.8253V20.8322C12.6412 20.8342 13.4258 20.5184 14.0128 19.9517C14.5998 19.3851 14.9431 18.6121 14.9699 17.7966C14.9966 16.9812 14.7048 16.1873 14.1562 15.5834C13.6077 14.9794 12.8455 14.6128 12.0312 14.5613L11.8253 14.555H9.31442L9.20143 14.545C9.0567 14.5188 8.92577 14.4426 8.83148 14.3297C8.7372 14.2168 8.68555 14.0744 8.68555 13.9273C8.68555 13.7802 8.7372 13.6378 8.83148 13.5249C8.92577 13.412 9.0567 13.3358 9.20143 13.3096L9.31442 13.2996H14.3362V10.7887H11.8253V9.53324ZM15.5916 3.25601C14.5277 3.25459 13.4755 3.47914 12.5049 3.91481C11.5342 4.35048 10.6671 4.98733 9.96097 5.78322C11.38 5.69708 12.8011 5.91315 14.1303 6.41715C15.4596 6.92115 16.6667 7.7016 17.6718 8.70688C18.677 9.71216 19.4573 10.9194 19.9611 12.2487C20.465 13.578 20.6809 14.9991 20.5946 16.4181C21.7361 15.4032 22.542 14.0653 22.9056 12.5819C23.2692 11.0984 23.1733 9.53941 22.6305 8.11172C22.0877 6.68404 21.1237 5.4551 19.8663 4.58789C18.609 3.72068 17.1178 3.25619 15.5904 3.25601H15.5916Z" fill="white"></path><path d="M7.05828 20.5965C6.7485 20.5925 6.55156 20.2567 6.67938 19.9745C6.7814 19.7492 6.88101 19.5068 6.9782 19.2473C7.17085 18.7229 7.33303 18.1567 7.46475 17.5489C7.59661 16.9307 7.66668 16.2962 7.67498 15.6455C7.68289 15.0257 7.59578 14.5649 7.41367 14.263C7.24189 13.9612 6.98557 13.8081 6.6447 13.8037C6.51042 13.802 6.39144 13.816 6.28775 13.8457C6.15487 13.8734 6.01192 13.7986 5.98251 13.666L5.76156 12.6702C5.71853 12.4763 5.82146 12.2785 6.01485 12.2332C6.08676 12.2164 6.16412 12.201 6.24691 12.187C6.48501 12.1487 6.73835 12.1313 7.00691 12.1347C7.54403 12.1416 8.0127 12.2509 8.41291 12.4626C8.81325 12.664 9.12408 12.9985 9.3454 13.4663C9.56685 13.9237 9.6725 14.55 9.66236 15.3454C9.65973 15.552 9.65226 15.7327 9.63995 15.8875C9.62778 16.032 9.61057 16.166 9.58834 16.2897C9.57832 16.3939 9.71771 16.4608 9.78548 16.3811L13.2039 12.3618C13.2828 12.269 13.3989 12.2162 13.5207 12.2178L14.6721 12.2325C14.9819 12.2364 15.1776 12.5714 15.0401 12.849C14.9226 13.0864 14.8006 13.3458 14.6741 13.6272C14.4399 14.1717 14.2361 14.7632 14.0627 15.4015C13.8892 16.0398 13.7984 16.6843 13.7901 17.3351C13.7841 17.7999 13.8208 18.1671 13.9 18.4367C13.9897 18.6962 14.1267 18.8839 14.3112 18.9999C14.4958 19.1055 14.7224 19.1601 14.991 19.1635C15.1149 19.1651 15.239 19.1563 15.3632 19.1372C15.5131 19.1047 15.6721 19.2188 15.6702 19.3721L15.6571 20.3942C15.655 20.5634 15.549 20.716 15.3836 20.752C15.313 20.7674 15.2372 20.781 15.1562 20.7927C14.9697 20.8317 14.7732 20.8498 14.5666 20.8472C14.1844 20.8423 13.8235 20.7861 13.484 20.6784C13.1444 20.5708 12.8471 20.3965 12.5919 20.1557C12.3366 19.9148 12.1392 19.5972 11.9996 19.2028C11.8602 18.7981 11.7942 18.3014 11.8017 17.7126C11.8052 17.4337 11.824 17.1757 11.858 16.9385C11.8796 16.7821 11.649 16.666 11.5487 16.788L8.52671 20.462C8.44785 20.5578 8.32972 20.6127 8.20558 20.6111L7.05828 20.5965Z" fill="rgb(246, 69, 69)"></path></svg>